<?xml version="1.0" standalone="no"?>
<!DOCTYPE svg PUBLIC "-//W3C//DTD SVG 20010904//EN"
 "http://www.w3.org/TR/2001/REC-SVG-20010904/DTD/svg10.dtd">
<svg version="1.0" xmlns="http://www.w3.org/2000/svg"
 width="666.000000pt" height="666.000000pt" viewBox="0 0 666.000000 666.000000"
 preserveAspectRatio="xMidYMid meet">
<metadata>
Created by potrace 1.11, written by Peter Selinger 2001-2013
</metadata>
<g transform="translate(0.000000,666.000000) scale(0.100000,-0.100000)"
fill="#000000" stroke="none">
<path d="M3486 6639 c-48 -25 -49 -27 -111 -114 -284 -398 -475 -879 -550
-1381 -16 -110 -19 -134 -31 -284 -12 -150 -6 -553 10 -635 2 -11 7 -51 11
-90 4 -38 17 -130 30 -205 13 -74 22 -136 20 -138 -2 -2 -39 3 -82 12 -84 17
-107 21 -193 31 -30 4 -64 9 -75 11 -11 2 -54 7 -95 10 -41 3 -91 7 -110 10
-43 5 -471 5 -520 -1 -19 -2 -64 -6 -100 -9 -36 -3 -78 -8 -95 -10 -16 -3 -50
-8 -75 -11 -25 -4 -79 -13 -120 -22 -41 -8 -86 -16 -100 -19 -14 -3 -33 -7
-42 -10 -10 -3 -30 -7 -45 -10 -43 -8 -218 -60 -318 -95 -281 -98 -623 -281
-820 -439 -74 -58 -92 -132 -54 -210 9 -19 79 -96 156 -171 120 -117 144 -137
179 -142 42 -7 109 7 134 28 8 6 45 33 82 58 l67 45 1101 -1100 c605 -605
1100 -1104 1100 -1107 0 -4 -23 -41 -51 -82 -82 -117 -94 -161 -65 -230 22
-51 282 -304 329 -318 83 -27 140 0 215 102 29 40 56 77 61 83 15 18 126 206
163 274 33 63 98 202 133 285 9 22 20 49 25 60 27 64 112 341 124 405 2 14 10
48 16 75 32 137 51 261 67 430 12 123 10 632 -2 644 -9 9 -75 24 -205 47 -35
7 -311 79 -393 103 l-69 20 6 -42 c3 -23 8 -69 12 -102 l6 -60 -436 435 c-240
239 -436 438 -436 442 0 8 42 3 240 -28 235 -37 391 -76 680 -170 102 -33 344
-102 385 -110 11 -2 70 -15 130 -28 61 -14 157 -32 215 -40 151 -22 153 -22
375 -42 54 -5 448 -4 505 0 135 12 246 26 330 42 14 2 41 7 60 10 19 3 43 7
52 10 10 3 30 7 45 10 96 17 404 107 488 143 329 140 477 221 697 379 56 39
83 67 98 97 45 92 21 140 -152 312 -151 148 -182 166 -265 142 -24 -6 -46 -16
-49 -20 -3 -5 -37 -29 -76 -55 l-71 -46 -1106 1106 -1105 1105 61 90 c108 159
103 182 -80 366 -73 72 -143 139 -157 148 -43 28 -109 30 -154 6z m975 -2178
c505 -506 919 -921 919 -924 0 -2 -26 -10 -57 -17 -32 -8 -62 -15 -68 -16 -27
-7 -67 -15 -145 -29 l-85 -15 -783 783 -783 782 6 40 c12 90 63 315 72 315 2
0 418 -414 924 -919z m-556 -561 l459 -460 -49 5 c-83 8 -205 23 -245 30 -14
3 -41 7 -60 10 -108 18 -410 93 -423 105 -9 8 -10 13 -52 180 -28 109 -28 113
-39 170 -3 19 -8 46 -11 60 -9 45 -33 213 -40 279 -3 36 -8 68 -11 73 -25 40
74 -55 471 -452z m-1476 -1467 c528 -529 766 -774 766 -788 -1 -16 -16 -117
-20 -135 -7 -29 -15 -70 -19 -90 -9 -48 -15 -73 -26 -107 l-12 -33 -921 922
c-906 906 -921 922 -892 929 99 26 298 66 334 68 18 1 182 -157 790 -766z"/>
</g>
</svg>
